<?xml version="1.0"?>
<svg xmlns="http://www.w3.org/2000/svg" xmlns:xlink="http://www.w3.org/1999/xlink" xmlns:svgjs="http://svgjs.com/svgjs" version="1.1" width="512" height="512" x="0" y="0" viewBox="0 0 512 512" style="enable-background:new 0 0 512 512" xml:space="preserve" class=""><g>
<g xmlns="http://www.w3.org/2000/svg">
	<g>
		<path d="M446.851,325.529l-83.543,51.856l17.608,28.37l19.611-12.172c-8.933,16.562-19.5,30.854-31.651,42.704    c-25.236,24.615-57.513,38.593-96.182,41.669V223.643h72.554v-33.391h-72.553v-62.129c27.841-7.397,48.421-32.826,48.421-62.983    C321.116,29.222,291.906,0,256,0c-35.931,0-65.163,29.222-65.163,65.141c0,30.161,20.6,55.592,48.468,62.986v62.126h-72.574    v33.391h72.574v254.315c-38.61-3.074-70.889-17.052-96.122-41.669c-12.13-11.834-22.682-26.104-31.607-42.642l19.508,12.109    l17.608-28.37l-83.543-51.856L44.324,426.352l32.7,6.754l4.952-23.974c10.574,19.679,23.229,36.759,37.888,51.059    C155.104,494.569,200.898,512,256.07,512c55.078,0,100.877-17.431,136.124-51.809c14.641-14.28,27.284-31.333,37.849-50.972    l4.934,23.885l32.699-6.754L446.851,325.529z M256,96.913c-17.518,0-31.772-14.253-31.772-31.772    c0-17.507,14.254-31.75,31.772-31.75c17.494,0,31.725,14.242,31.725,31.75C287.725,82.66,273.494,96.913,256,96.913z" fill="#ffffff" data-original="#000000" style="" class=""/>
	</g>
</g>
<g xmlns="http://www.w3.org/2000/svg">
</g>
<g xmlns="http://www.w3.org/2000/svg">
</g>
<g xmlns="http://www.w3.org/2000/svg">
</g>
<g xmlns="http://www.w3.org/2000/svg">
</g>
<g xmlns="http://www.w3.org/2000/svg">
</g>
<g xmlns="http://www.w3.org/2000/svg">
</g>
<g xmlns="http://www.w3.org/2000/svg">
</g>
<g xmlns="http://www.w3.org/2000/svg">
</g>
<g xmlns="http://www.w3.org/2000/svg">
</g>
<g xmlns="http://www.w3.org/2000/svg">
</g>
<g xmlns="http://www.w3.org/2000/svg">
</g>
<g xmlns="http://www.w3.org/2000/svg">
</g>
<g xmlns="http://www.w3.org/2000/svg">
</g>
<g xmlns="http://www.w3.org/2000/svg">
</g>
<g xmlns="http://www.w3.org/2000/svg">
</g>
</g></svg>
